<svg xmlns="http://www.w3.org/2000/svg" viewBox="0 0 210 50" width="210" height="50">
	<style>
		tspan { white-space:pre }
	</style>
	<path id="Small@小柒 " fill="#0099ff" d="M55.98 30.96L40.1 32L39.86 30.14L54.4 29.16L53.23 25.1L41.97 26.1L40.62 25.14L40.98 18.48L42.31 17.58L56.01 18.56L55.8 20.44L43.37 19.56L43.11 24.1L54.03 23.16L55.36 23.88L57.1 29.8L55.98 30.96ZM55.3 30.96L39.41 32L39.18 30.14L53.71 29.16L52.54 25.1L41.28 26.1L39.93 25.14L40.3 18.48L41.62 17.58L55.32 18.56L55.12 20.44L42.69 19.56L42.43 24.1L53.35 23.16L54.67 23.88L56.42 29.8L55.3 30.96ZM69.97 31.46L68.56 31.66L67.17 25.78L64.41 29.54L63.13 29.49L61.05 26.02L59.74 31.66L58.32 31.46L60.05 24.08L61.39 23.95L63.86 28.05L66.91 23.91L68.24 24.08L69.97 31.46ZM69.57 31.46L68.15 31.66L66.77 25.78L64.01 29.54L62.73 29.49L60.65 26.02L59.34 31.66L57.92 31.46L59.65 24.08L60.99 23.95L63.46 28.05L66.51 23.91L67.83 24.08L69.57 31.46ZM76.86 24.83L74.48 28.84L77.85 28.4L78.11 29.5L73.75 30.06L72.44 32.28L71.12 31.84L76.2 23.3L77.51 23.28L82.15 30.78L80.85 31.26L76.86 24.83ZM76.46 24.83L74.08 28.84L77.45 28.4L77.71 29.5L73.34 30.06L72.03 32.28L70.72 31.84L75.8 23.3L77.11 23.28L81.75 30.78L80.45 31.26L76.46 24.83ZM91.21 30.87L91.15 31.96L83.98 31.81L83.3 31.19L84.38 23.6L85.81 23.73L84.82 30.72L91.21 30.87ZM90.81 30.87L90.75 31.96L83.58 31.81L82.9 31.19L83.98 23.6L85.41 23.73L84.42 30.72L90.81 30.87ZM100.28 30.87L100.22 31.96L93.05 31.81L92.36 31.19L93.45 23.6L94.88 23.73L93.89 30.72L100.28 30.87ZM99.87 30.87L99.81 31.96L92.65 31.81L91.96 31.19L93.04 23.6L94.48 23.73L93.49 30.72L99.87 30.87ZM112.55 33.14L111.95 33.18L103.6 32.06L102.72 31.36L101.78 24.54L102.17 23.78L108.18 20.28L109.01 20.14L116.63 21.14L117.51 21.78L118.89 27.42L118.4 28.24L113.35 30.72L111.77 29.96L111.79 29.56L108.96 30.46L107.79 30.28L105.53 28.44L105.32 27.52L107.61 24.04L108.88 23.62L112.34 24.54L112.42 23.96L114.52 24.12L114.03 28.46L116.68 27.16L115.56 22.64L109.09 21.78L103.94 24.82L104.75 30.58L112.03 31.56L117.15 29.96L117.98 31.46L112.55 33.14ZM107.53 27.74L108.83 28.76L112 27.76L112.16 26.18L109.06 25.38L107.53 27.74ZM111.86 33.14L111.26 33.18L102.92 32.06L102.03 31.36L101.1 24.54L101.49 23.78L107.49 20.28L108.33 20.14L115.94 21.14L116.83 21.78L118.21 27.42L117.71 28.24L112.67 30.72L111.08 29.96L111.11 29.56L108.27 30.46L107.1 30.28L104.84 28.44L104.63 27.52L106.92 24.04L108.2 23.62L111.65 24.54L111.73 23.96L113.84 24.12L113.34 28.46L116 27.16L114.88 22.64L108.4 21.78L103.26 24.82L104.06 30.58L111.34 31.56L116.46 29.96L117.3 31.46L111.86 33.14ZM106.84 27.74L108.14 28.76L111.32 27.76L111.47 26.18L108.38 25.38L106.84 27.74ZM141.1 28L136.26 22.78L138.26 21.68L143.07 26.9L141.1 28ZM127.47 32.82L126.43 31.12L132.23 29.1L130.93 16.96L133.37 16.8L134.73 29.6L134.02 30.52L127.47 32.82ZM123.94 29.22L121.73 28.46L126.15 20.88L128.38 21.66L123.94 29.22ZM140.41 28L135.57 22.78L137.58 21.68L142.39 26.9L140.41 28ZM126.79 32.82L125.75 31.12L131.54 29.1L130.24 16.96L132.69 16.8L134.04 29.6L133.34 30.52L126.79 32.82ZM123.25 29.22L121.04 28.46L125.46 20.88L127.7 21.66L123.25 29.22ZM169.95 27.84L164.96 27.98L168.65 31.98L166.65 33.08L161.99 28.04L160.62 28.08L160.38 33.34L157.91 33.28L158.15 28.14L149.41 28.34L149.33 26.44L158.22 26.22L158.33 24.08L160.8 24.14L160.69 26.16L169.9 25.94L169.95 27.84ZM169.61 19.64L161.99 20.36L161.84 21.68L169.25 22.78L168.78 24.64L160.25 23.38L159.26 22.34L159.47 20.6L155.96 20.92L155.62 19.04L159.73 18.66L160.04 16.28L162.51 16.48L162.25 18.42L169.27 17.74L169.61 19.64ZM154.32 23.1L150.27 25.28L148.84 23.72L151.31 22.4L147.95 21L149.15 19.34L154.22 21.48L154.32 23.1ZM156.27 30.18L149.54 33.1L148.32 31.44L155.05 28.52L156.27 30.18ZM155.13 17.78L154.32 19.58L148.97 18.12L149.77 16.32L155.13 17.78ZM169.26 27.84L164.27 27.98L167.96 31.98L165.96 33.08L161.31 28.04L159.93 28.08L159.7 33.34L157.23 33.28L157.46 28.14L148.72 28.34L148.65 26.44L157.54 26.22L157.64 24.08L160.11 24.14L160.01 26.16L169.21 25.94L169.26 27.84ZM168.93 19.64L161.31 20.36L161.15 21.68L168.56 22.78L168.09 24.64L159.57 23.38L158.58 22.34L158.79 20.6L155.28 20.92L154.94 19.04L159.05 18.66L159.36 16.28L161.83 16.48L161.57 18.42L168.59 17.74L168.93 19.64ZM153.64 23.1L149.58 25.28L148.15 23.72L150.62 22.4L147.27 21L148.46 19.34L153.53 21.48L153.64 23.1ZM155.59 30.18L148.85 33.1L147.63 31.44L154.37 28.52L155.59 30.18ZM154.44 17.78L153.64 19.58L148.28 18.12L149.09 16.32L154.44 17.78Z" />
</svg>