<svg xmlns="http://www.w3.org/2000/svg" viewBox="0 0 210 50" width="210" height="50">
	<style>
		tspan { white-space:pre }
		.shp0 { fill: #ffffff } 
	</style>
	<path id="Small@小柒 " fill-rule="evenodd" class="shp0" d="M55.98 30.96L40.1 32L40.09 31.96L39.41 32L39.18 30.14L53.71 29.16L52.56 25.16L41.97 26.1L41.89 26.05L41.28 26.1L39.93 25.14L40.3 18.48L41.62 17.58L42.24 17.62L42.31 17.58L56.01 18.56L55.8 20.44L55.13 20.39L55.12 20.44L43.37 19.61L43.11 24.04L53.35 23.16L53.44 23.21L54.03 23.16L55.36 23.88L57.1 29.8L55.98 30.96ZM69.97 31.46L68.56 31.66L68.55 31.6L68.15 31.66L66.87 26.19L64.41 29.54L64.02 29.52L64.01 29.54L62.73 29.49L60.94 26.5L59.74 31.66L59.35 31.61L59.34 31.66L57.92 31.46L59.65 24.08L60.99 23.95L61.01 23.99L61.39 23.95L63.68 27.75L66.51 23.91L66.88 23.96L66.91 23.91L68.24 24.08L69.97 31.46ZM77.85 28.4L78.11 29.5L73.75 30.06L72.44 32.28L72.1 32.17L72.03 32.28L70.72 31.84L75.8 23.3L77.11 23.28L77.11 23.29L77.51 23.28L82.15 30.78L80.85 31.26L80.78 31.14L80.45 31.26L76.66 25.16L74.51 28.78L77.45 28.4L77.46 28.45L77.85 28.4ZM91.21 30.87L91.15 31.96L90.75 31.95L90.75 31.96L83.58 31.81L82.9 31.19L83.98 23.6L84.37 23.64L84.38 23.6L85.81 23.73L84.82 30.72L91.21 30.87ZM100.28 30.87L100.22 31.96L99.81 31.95L99.81 31.96L92.65 31.81L91.96 31.19L93.04 23.6L93.44 23.64L93.45 23.6L94.88 23.73L93.89 30.72L100.28 30.87ZM112.55 33.14L111.95 33.18L111.72 33.15L111.26 33.18L102.92 32.06L102.03 31.36L101.1 24.54L101.49 23.78L107.49 20.28L108.33 20.14L108.71 20.19L109.01 20.14L116.63 21.14L117.51 21.78L118.89 27.42L118.4 28.24L113.35 30.72L113.01 30.55L112.67 30.72L111.08 29.96L111.09 29.78L108.96 30.46L108.5 30.39L108.27 30.46L107.1 30.28L104.84 28.44L104.63 27.52L106.92 24.04L108.2 23.62L108.58 23.72L108.88 23.62L111.67 24.36L111.73 23.96L112.41 24.01L112.42 23.96L114.52 24.12L114.07 28.1L116 27.16L114.88 22.64L108.96 21.85L103.94 24.82L104.75 30.58L111.55 31.5L116.46 29.96L116.56 30.14L117.15 29.96L117.98 31.46L112.55 33.14ZM108.96 25.53L111.47 26.18L111.32 27.76L108.63 28.61L107.53 27.74L108.96 25.53ZM108.83 28.76L112 27.76L112.16 26.18L109.06 25.38L108.96 25.53L108.38 25.38L106.84 27.74L108.14 28.76L108.63 28.61L108.83 28.76ZM141.1 28L140.87 27.75L140.41 28L135.57 22.78L137.58 21.68L137.81 21.93L138.26 21.68L143.07 26.9L141.1 28ZM127.47 32.82L127.35 32.62L126.79 32.82L125.75 31.12L131.54 29.1L130.24 16.96L132.69 16.8L132.69 16.84L133.37 16.8L134.73 29.6L134.02 30.52L127.47 32.82ZM123.94 29.22L123.37 29.02L123.25 29.22L121.04 28.46L125.46 20.88L126.03 21.08L126.15 20.88L128.38 21.66L123.94 29.22ZM169.95 27.84L164.96 27.98L168.65 31.98L166.65 33.08L166.42 32.83L165.96 33.08L161.33 28.06L160.62 28.08L160.38 33.34L159.7 33.32L159.7 33.34L157.23 33.28L157.46 28.16L149.41 28.34L149.41 28.32L148.72 28.34L148.65 26.44L157.54 26.22L157.64 24.08L158.33 24.1L158.33 24.08L160.8 24.14L160.69 26.14L169.21 25.94L169.21 25.96L169.9 25.94L169.95 27.84ZM169.61 19.64L161.99 20.36L161.84 21.68L169.25 22.78L168.78 24.64L168.11 24.54L168.09 24.64L159.57 23.38L158.58 22.34L158.78 20.66L155.96 20.92L155.95 20.86L155.28 20.92L154.94 19.04L159.05 18.66L159.36 16.28L160.03 16.33L160.04 16.28L162.51 16.48L162.26 18.35L168.59 17.74L168.6 17.8L169.27 17.74L169.61 19.64ZM154.32 23.1L150.27 25.28L150.04 25.03L149.58 25.28L148.15 23.72L150.62 22.4L147.27 21L148.46 19.34L148.99 19.56L149.15 19.34L154.22 21.48L154.32 23.1ZM156.27 30.18L149.54 33.1L149.37 32.87L148.85 33.1L147.63 31.44L154.37 28.52L154.53 28.74L155.05 28.52L156.27 30.18ZM155.13 17.78L154.32 19.58L153.71 19.41L153.64 19.58L148.28 18.12L149.09 16.32L149.7 16.49L149.77 16.32L155.13 17.78Z" />
	<text id=" " style="transform: matrix(1,0,0,1,39.86,17.58)" >
	</text>
</svg>