<svg xmlns="http://www.w3.org/2000/svg" viewBox="0 0 210 50" width="210" height="50">
	<style>
		tspan { white-space:pre }
		.shp0 { fill: #ffffff } 
		.txt1 { font-size: 13px;fill: #000000;font-family: "Liberation Sans" } 
	</style>
	<path id="Small@小柒 " fill-rule="evenodd" class="shp0" d="M16.98 30.96L1.1 32L1.09 31.96L0.41 32L0.18 30.14L14.71 29.16L13.56 25.16L2.97 26.1L2.89 26.05L2.28 26.1L0.93 25.14L1.3 18.48L2.62 17.58L3.24 17.62L3.31 17.58L17.01 18.56L16.8 20.44L16.13 20.39L16.12 20.44L4.37 19.61L4.11 24.04L14.35 23.16L14.44 23.21L15.03 23.16L16.36 23.88L18.1 29.8L16.98 30.96ZM30.97 31.46L29.56 31.66L29.55 31.6L29.15 31.66L27.87 26.19L25.41 29.54L25.02 29.52L25.01 29.54L23.73 29.49L21.94 26.5L20.74 31.66L20.35 31.61L20.34 31.66L18.92 31.46L20.65 24.08L21.99 23.95L22.01 23.99L22.39 23.95L24.68 27.75L27.51 23.91L27.88 23.96L27.91 23.91L29.24 24.08L30.97 31.46ZM38.85 28.4L39.11 29.5L34.75 30.06L33.44 32.28L33.1 32.17L33.03 32.28L31.72 31.84L36.8 23.3L38.11 23.28L38.11 23.29L38.51 23.28L43.15 30.78L41.85 31.26L41.78 31.14L41.45 31.26L37.66 25.16L35.51 28.78L38.45 28.4L38.46 28.45L38.85 28.4ZM52.21 30.87L52.15 31.96L51.75 31.95L51.75 31.96L44.58 31.81L43.9 31.19L44.98 23.6L45.37 23.64L45.38 23.6L46.81 23.73L45.82 30.72L52.21 30.87ZM61.28 30.87L61.22 31.96L60.81 31.95L60.81 31.96L53.65 31.81L52.96 31.19L54.04 23.6L54.44 23.64L54.45 23.6L55.88 23.73L54.89 30.72L61.28 30.87ZM73.55 33.14L72.95 33.18L72.72 33.15L72.26 33.18L63.92 32.06L63.03 31.36L62.1 24.54L62.49 23.78L68.49 20.28L69.33 20.14L69.71 20.19L70.01 20.14L77.63 21.14L78.51 21.78L79.89 27.42L79.4 28.24L74.35 30.72L74.01 30.55L73.67 30.72L72.08 29.96L72.09 29.78L69.96 30.46L69.5 30.39L69.27 30.46L68.1 30.28L65.84 28.44L65.63 27.52L67.92 24.04L69.2 23.62L69.58 23.72L69.88 23.62L72.67 24.36L72.73 23.96L73.41 24.01L73.42 23.96L75.52 24.12L75.07 28.1L77 27.16L75.88 22.64L69.96 21.85L64.94 24.82L65.75 30.58L72.55 31.5L77.46 29.96L77.56 30.14L78.15 29.96L78.98 31.46L73.55 33.14ZM69.83 28.76L73 27.76L73.16 26.18L70.06 25.38L69.96 25.53L69.38 25.38L67.84 27.74L69.14 28.76L69.63 28.61L69.83 28.76ZM69.96 25.53L72.47 26.18L72.32 27.76L69.63 28.61L68.53 27.74L69.96 25.53ZM102.1 28L101.87 27.75L101.41 28L96.57 22.78L98.58 21.68L98.81 21.93L99.26 21.68L104.07 26.9L102.1 28ZM88.47 32.82L88.35 32.62L87.79 32.82L86.75 31.12L92.54 29.1L91.24 16.96L93.69 16.8L93.69 16.84L94.37 16.8L95.73 29.6L95.02 30.52L88.47 32.82ZM84.94 29.22L84.37 29.02L84.25 29.22L82.04 28.46L86.46 20.88L87.03 21.08L87.15 20.88L89.38 21.66L84.94 29.22ZM130.95 27.84L125.96 27.98L129.65 31.98L127.65 33.08L127.42 32.83L126.96 33.08L122.33 28.06L121.62 28.08L121.38 33.34L120.7 33.32L120.7 33.34L118.23 33.28L118.46 28.16L110.41 28.34L110.41 28.32L109.72 28.34L109.65 26.44L118.54 26.22L118.64 24.08L119.33 24.1L119.33 24.08L121.8 24.14L121.69 26.14L130.21 25.94L130.21 25.96L130.9 25.94L130.95 27.84ZM130.61 19.64L122.99 20.36L122.84 21.68L130.25 22.78L129.78 24.64L129.11 24.54L129.09 24.64L120.57 23.38L119.58 22.34L119.78 20.66L116.96 20.92L116.95 20.86L116.28 20.92L115.94 19.04L120.05 18.66L120.36 16.28L121.03 16.33L121.04 16.28L123.51 16.48L123.26 18.35L129.59 17.74L129.6 17.8L130.27 17.74L130.61 19.64ZM115.32 23.1L111.27 25.28L111.04 25.03L110.58 25.28L109.15 23.72L111.62 22.4L108.27 21L109.46 19.34L109.99 19.56L110.15 19.34L115.22 21.48L115.32 23.1ZM117.27 30.18L110.54 33.1L110.37 32.87L109.85 33.1L108.63 31.44L115.37 28.52L115.53 28.74L116.05 28.52L117.27 30.18ZM116.13 17.78L115.32 19.58L114.71 19.41L114.64 19.58L109.28 18.12L110.09 16.32L110.7 16.49L110.77 16.32L116.13 17.78Z" />
	<text id=" " style="transform: matrix(1,0,0,1,39.86,17.58)" >
		<tspan x="0" y="14.56" class="txt1">	</tspan>
	</text>
</svg>